# This file uses centimeters as units for non-parametric coordinates.

mtllib Muur.mtl
g default
v 7.094813 6.619337 6.099118
v 7.094813 5.718920 4.994910
v 7.094813 4.316486 4.118605
v 7.094813 2.549317 3.555984
v 7.094813 0.590395 3.362118
v 7.094813 0.590395 11.284164
v 7.094813 2.549316 11.090298
v 7.094813 4.316484 10.527676
v 7.094813 5.718916 9.651372
v 7.094813 6.619334 8.547165
v 7.094813 6.929596 7.323142
v -7.094813 6.619337 6.099118
v -7.094813 5.718920 4.994910
v -7.094813 4.316486 4.118605
v -7.094813 2.549317 3.555984
v -7.094813 0.590395 3.362118
v -7.094813 0.590395 11.284164
v -7.094813 2.549316 11.090298
v -7.094813 4.316484 10.527676
v -7.094813 5.718916 9.651372
v -7.094813 6.619334 8.547165
v -7.094813 6.929596 7.323142
v 7.094813 0.590395 7.323142
v -7.094813 0.590395 7.323142
vt 0.648603 0.107966
vt 0.626409 0.064408
vt 0.591842 0.029841
vt 0.548284 0.007647
vt 0.500000 -0.000000
vt 0.500000 0.312500
vt 0.548284 0.304853
vt 0.591841 0.282659
vt 0.626409 0.248091
vt 0.648603 0.204534
vt 0.656250 0.156250
vt 0.465269 0.314852
vt 0.413642 0.315342
vt 0.360411 0.316266
vt 0.308812 0.316359
vt 0.256052 0.315598
vt 0.745100 0.312500
vt 0.692947 0.312500
vt 0.643813 0.312500
vt 0.599999 0.312500
vt 0.562252 0.312500
vt 0.528795 0.312500
vt 0.495342 0.312500
vt 0.465270 0.686088
vt 0.413642 0.685598
vt 0.360411 0.684674
vt 0.308812 0.684581
vt 0.256052 0.685342
vt 0.745100 0.688440
vt 0.692947 0.688440
vt 0.643813 0.688440
vt 0.599999 0.688440
vt 0.562252 0.688440
vt 0.528796 0.688440
vt 0.495342 0.688440
vt 0.648603 0.795466
vt 0.626409 0.751908
vt 0.591842 0.717341
vt 0.548284 0.695147
vt 0.500000 0.687500
vt 0.500000 1.000000
vt 0.548284 0.992353
vt 0.591841 0.970159
vt 0.626409 0.935591
vt 0.648603 0.892034
vt 0.656250 0.843750
vt 0.500000 0.150000
vt 0.500000 0.837500
vn -0.000000 -0.887217 0.461351
vn -0.000000 -0.887217 0.461351
vn -0.000000 -0.652051 0.758175
vn -0.000000 -0.652051 0.758175
vn -0.000000 -0.413374 0.910562
vn -0.000000 -0.413374 0.910562
vn -0.000000 -0.198965 0.980007
vn -0.000000 -0.198965 0.980007
vn -0.000000 -0.098485 0.995139
vn -0.000000 -0.098485 0.995139
vn -0.000000 -0.098485 -0.995139
vn -0.000000 -0.098485 -0.995139
vn -0.000000 -0.198966 -0.980007
vn -0.000000 -0.198966 -0.980007
vn -0.000000 -0.413374 -0.910561
vn -0.000000 -0.413374 -0.910561
vn -0.000000 -0.652051 -0.758175
vn -0.000000 -0.652051 -0.758175
vn -0.000000 -0.887217 -0.461353
vn -0.000000 -0.887217 -0.461353
vn -0.000000 -1.000000 -0.000002
vn -0.000000 -1.000000 -0.000002
vn -1.000000 0.000000 0.000000
vn -1.000000 0.000000 0.000000
vn -1.000000 0.000000 0.000000
vn -1.000000 0.000000 0.000000
vn -1.000000 0.000000 0.000000
vn -1.000000 0.000000 0.000000
vn -1.000000 0.000000 0.000000
vn -1.000000 0.000000 0.000000
vn -1.000000 0.000000 0.000000
vn -1.000000 0.000000 0.000000
vn -1.000000 0.000000 0.000000
vn -1.000000 0.000000 0.000000
vn 1.000000 -0.000000 0.000000
vn 1.000000 -0.000000 0.000000
vn 1.000000 -0.000000 0.000000
vn 1.000000 -0.000000 0.000000
vn 1.000000 -0.000000 0.000000
vn 1.000000 -0.000000 0.000000
vn 1.000000 -0.000000 0.000000
vn 1.000000 -0.000000 0.000000
vn 1.000000 -0.000000 0.000000
vn 1.000000 -0.000000 0.000000
vn 1.000000 -0.000000 0.000000
vn 1.000000 -0.000000 0.000000
s 1
g pCylinder1
usemtl initialShadingGroup
f 1/12/1 12/24/2 13/25/3 2/13/4
f 2/13/4 13/25/3 14/26/5 3/14/6
f 3/14/6 14/26/5 15/27/7 4/15/8
f 4/15/8 15/27/7 16/28/9 5/16/10
f 6/17/11 17/29/12 18/30/13 7/18/14
f 7/18/14 18/30/13 19/31/15 8/19/16
f 8/19/16 19/31/15 20/32/17 9/20/18
f 9/20/18 20/32/17 21/33/19 10/21/20
f 10/21/20 21/33/19 22/34/21 11/22/22
f 11/22/22 22/34/21 12/35/2 1/23/1
s 3
f 2/2/23 23/47/24 1/1/25
f 3/3/26 23/47/24 2/2/23
f 4/4/27 23/47/24 3/3/26
f 5/5/28 23/47/24 4/4/27
f 7/7/29 23/47/24 6/6/30
f 8/8/31 23/47/24 7/7/29
f 9/9/32 23/47/24 8/8/31
f 10/10/33 23/47/24 9/9/32
f 11/11/34 23/47/24 10/10/33
f 1/1/25 23/47/24 11/11/34
s 5
f 12/45/35 24/48/36 13/44/37
f 13/44/37 24/48/36 14/43/38
f 14/43/38 24/48/36 15/42/39
f 15/42/39 24/48/36 16/41/40
f 17/40/41 24/48/36 18/39/42
f 18/39/42 24/48/36 19/38/43
f 19/38/43 24/48/36 20/37/44
f 20/37/44 24/48/36 21/36/45
f 21/36/45 24/48/36 22/46/46
f 22/46/46 24/48/36 12/45/35
